<?xml version="1.0" encoding="utf-8"?>
<!-- Generator: Adobe Illustrator 25.2.0, SVG Export Plug-In . SVG Version: 6.00 Build 0)  -->
<svg version="1.1" id="Layer_1" xmlns="http://www.w3.org/2000/svg" xmlns:xlink="http://www.w3.org/1999/xlink" x="0px" y="0px"
	 viewBox="0 0 715.7 319.4" style="enable-background:new 0 0 715.7 319.4;" xml:space="preserve">
<style type="text/css">
	.st0{fill:#3F3D56;}
	.st1{fill:#6C63FF;}
</style>
<g id="Layer_2_1_">
	<g id="b8eef085-bbb0-4c81-9a53-f8aa424b48dc">
		<g id="airplane">
			<path class="st0" d="M52.5,132.5L624.2,40c23.2-3.9,42.2,4.7,53.5,12c3.8,2.5,7.4,5.3,10.8,8.3l0.3,0.4c5,2.5,9.9,5.4,14.4,8.7
				c29.4,22.4-2.3,39-2.3,39c-217.7,89.6-508.1,65.5-508.1,65.5s-56.5-1.8-97.7-6.7c-15.2-1.8-28.3-4.1-35.8-6.8
				C31.6,150.1,52.5,132.5,52.5,132.5z"/>
			<path class="st0" d="M52.5,132.5L0.8,42.7l52.8-9.2l119.7,85C171.9,133.4,52.5,132.5,52.5,132.5z"/>
			<polygon class="st0" points="339.1,94.1 305.4,56.5 197.7,8 236.2,0 474.6,66.9 			"/>
			<path class="st1" d="M431.8,128.1c224.4-26.5,271.4-58.2,271.4-58.2v-0.5c29.4,22.4-2.3,39-2.3,39
				c-217.7,89.6-508.1,65.5-508.1,65.5s-56.5-1.8-97.7-6.7L431.8,128.1z"/>
			<path class="st0" d="M63.8,158L0,205.9l26.8,3l106.6-43.5C140.9,141.5,63.8,158,63.8,158z"/>
			<path class="st1" d="M655.6,63.5c5.8,0.2,16.2-7,22.1-11.5c3.8,2.5,7.4,5.2,10.7,8.3c-7.2,5.8-18.8,14.3-23.9,14.2
				C656.8,74.4,647.3,63.1,655.6,63.5z"/>
			<path class="st0" d="M331.1,194.2l-0.5-1.1c-1.4-3.2-4.8-11.8-5-19.2c-0.2-3.9,0.7-7.5,3.2-9.6c0,0,132.8-37.9,165.3-10.5
				l-17.3,11.7l-35.7,24.1L248.7,319.4l-68.5-3.6L331.1,194.2z"/>
		</g>
	</g>
</g>
</svg>
