<svg xmlns="http://www.w3.org/2000/svg" viewBox="0 0 148 391"><defs><style>.cls-1{fill:#e6e6e6;}.cls-2{fill:#f2f2f2;}.cls-3{fill:#fff;}</style></defs><g id="Layer_2" data-name="Layer 2"><g id="Layer_1-2" data-name="Layer 1"><g id="apt"><path class="cls-1" d="M76.5,46h-16A4.5,4.5,0,0,1,56,41.5V4.5A4.5,4.5,0,0,1,60.5,0h16A4.5,4.5,0,0,1,81,4.5v37A4.5,4.5,0,0,1,76.5,46Z"/><path class="cls-1" d="M139.5,391h-82a8.5,8.5,0,0,1-8.5-8.5V51.5A8.5,8.5,0,0,1,57.5,43h82a8.5,8.5,0,0,1,8.5,8.5v331A8.5,8.5,0,0,1,139.5,391Z"/><path class="cls-2" d="M90.5,391H8.5A8.5,8.5,0,0,1,0,382.5V51.5A8.5,8.5,0,0,1,8.5,43h82A8.5,8.5,0,0,1,99,51.5v331A8.5,8.5,0,0,1,90.5,391Z"/><path class="cls-2" d="M61.5,46h-16A4.5,4.5,0,0,1,41,41.5V4.5A4.5,4.5,0,0,1,45.5,0h16A4.5,4.5,0,0,1,66,4.5v37A4.5,4.5,0,0,1,61.5,46Z"/><path class="cls-3" d="M40.5,118h-19a2.5,2.5,0,0,1-2.5-2.5v-29A2.5,2.5,0,0,1,21.5,84h19A2.5,2.5,0,0,1,43,86.5v29A2.5,2.5,0,0,1,40.5,118Z"/><path class="cls-3" d="M77.5,118h-19a2.5,2.5,0,0,1-2.5-2.5v-29A2.5,2.5,0,0,1,58.5,84h19A2.5,2.5,0,0,1,80,86.5v29A2.5,2.5,0,0,1,77.5,118Z"/><path class="cls-3" d="M40.5,171h-19a2.5,2.5,0,0,1-2.5-2.5v-29a2.5,2.5,0,0,1,2.5-2.5h19a2.5,2.5,0,0,1,2.5,2.5v29A2.5,2.5,0,0,1,40.5,171Z"/><path class="cls-3" d="M77.5,171h-19a2.5,2.5,0,0,1-2.5-2.5v-29a2.5,2.5,0,0,1,2.5-2.5h19a2.5,2.5,0,0,1,2.5,2.5v29A2.5,2.5,0,0,1,77.5,171Z"/><path class="cls-3" d="M40.5,224h-19a2.5,2.5,0,0,1-2.5-2.5v-29a2.5,2.5,0,0,1,2.5-2.5h19a2.5,2.5,0,0,1,2.5,2.5v29A2.5,2.5,0,0,1,40.5,224Z"/><path class="cls-3" d="M77.5,224h-19a2.5,2.5,0,0,1-2.5-2.5v-29a2.5,2.5,0,0,1,2.5-2.5h19a2.5,2.5,0,0,1,2.5,2.5v29A2.5,2.5,0,0,1,77.5,224Z"/><path class="cls-3" d="M40.5,277h-19a2.5,2.5,0,0,1-2.5-2.5v-29a2.5,2.5,0,0,1,2.5-2.5h19a2.5,2.5,0,0,1,2.5,2.5v29A2.5,2.5,0,0,1,40.5,277Z"/><path class="cls-3" d="M77.5,277h-19a2.5,2.5,0,0,1-2.5-2.5v-29a2.5,2.5,0,0,1,2.5-2.5h19a2.5,2.5,0,0,1,2.5,2.5v29A2.5,2.5,0,0,1,77.5,277Z"/><path class="cls-3" d="M40.5,330h-19a2.5,2.5,0,0,1-2.5-2.5v-29a2.5,2.5,0,0,1,2.5-2.5h19a2.5,2.5,0,0,1,2.5,2.5v29A2.5,2.5,0,0,1,40.5,330Z"/><path class="cls-3" d="M77.5,330h-19a2.5,2.5,0,0,1-2.5-2.5v-29a2.5,2.5,0,0,1,2.5-2.5h19a2.5,2.5,0,0,1,2.5,2.5v29A2.5,2.5,0,0,1,77.5,330Z"/></g></g></g></svg>