<svg xmlns="http://www.w3.org/2000/svg" viewBox="0 0 451.8 587.1"><defs><style>.cls-1{fill:#6c63ff;}.cls-2{fill:#949494;}.cls-3{fill:#db8b8b;}.cls-4{opacity:0.1;}.cls-4,.cls-5{isolation:isolate;}.cls-5{opacity:0.05;}.cls-6{fill:#2f2e41;}.cls-7{fill:#abb1d1;}.cls-8{fill:#36344a;}.cls-9{fill:#535461;}</style></defs><g id="Layer_2" data-name="Layer 2"><g id="_74ad5bb7-fdcd-4b2d-be88-4cebbebfa027" data-name="74ad5bb7-fdcd-4b2d-be88-4cebbebfa027"><g id="biker"><rect class="cls-1" x="299.8" y="468.1" width="60" height="19" transform="translate(-240.4 369.3) rotate(-44.6)"/><rect class="cls-2" x="299.8" y="468.1" width="60" height="19" transform="translate(-240.4 369.3) rotate(-44.6)"/><path class="cls-3" d="M302.3,447.6s-25-22-75-36-45-30-45-30l3-11,65,5,31.1,18.9a135.3,135.3,0,0,1,18.5,13.6c9.6,8.4,34.4,21.5,34.4,21.5C334.3,458.6,302.3,447.6,302.3,447.6Z"/><path class="cls-4" d="M303.3,440.6h3.4a27.8,27.8,0,0,0,23.6-13.2l4,2.2c0,29-32,18-32,18l-2.7-2.2Z"/><path class="cls-5" d="M182.3,381.6l3-11,53.4,4.1,11.6.9,31.1,18.9A130.9,130.9,0,0,1,299.9,408c7.2,6.4,22.9,15.3,30.4,19.4l4,2.2c0,29-32,18-32,18l-2.7-2.2c-7.6-5.8-31.7-22.5-72.3-33.8-31.7-8.9-41.3-18.6-44.1-24.5C181.6,383.7,182.3,381.6,182.3,381.6Z"/><path class="cls-6" d="M307.7,441.6h-3.4l-6,8c-1,24-21,41-21,41-6,8,5.4,15,5.4,15l77.6-65-26.5-17.5A27.7,27.7,0,0,1,307.7,441.6Z"/><path class="cls-4" d="M182.3,381.6l3-11,53.4,4.1-.4,3.9s-39.1.8-55.1,8.5C181.6,383.7,182.3,381.6,182.3,381.6Z"/><path class="cls-7" d="M250.3,266.6h-65l-6,121c12-10,59-11,59-11Z"/><path class="cls-8" d="M250.3,266.1h-65l-6,121c12-10,59-11,59-11Z"/><path class="cls-9" d="M198.1,322.5s-120,6.5-117.7-8.8,120.1-11.2,120.1-11.2C207.7,312.9,198.1,322.5,198.1,322.5Z"/><path class="cls-5" d="M198.1,322.5s-120,6.5-117.7-8.8,120.1-11.2,120.1-11.2C207.7,312.9,198.1,322.5,198.1,322.5Z"/><rect class="cls-2" x="295.7" y="363.4" width="20.8" height="180.88"/><path class="cls-4" d="M316.5,363.4V379c-6.8-.2-13.8-.8-20.8-1.7V363.4Z"/><path class="cls-9" d="M255.7,363.4c8.8,9.6,52.9,16,78.5,13.6s28.8-19.2,19.2-28.8c-7.7-7.7-36.1-3.2-47.4-1a86.6,86.6,0,0,1-8.7,1.2C271.7,350.3,255.7,363.4,255.7,363.4Z"/><polygon class="cls-2" points="299.7 438.6 75.6 361.8 82.8 345 301.3 413 299.7 438.6"/><polygon class="cls-2" points="220.5 534.6 70 377.8 78.8 365 236.5 520.2 220.5 534.6"/><path class="cls-4" d="M43.8,440.4a118.8,118.8,0,0,1,15.5,5.5l-9.6,26.7a92.7,92.7,0,0,0-14.5-5.2Z"/><polygon class="cls-2" points="78.2 328.1 82.8 313.7 101.3 324.1 97.8 333.9 19.6 552.2 8.4 545.8 78.2 328.1"/><polygon class="cls-4" points="82.8 313.7 101.3 324.1 97.8 333.9 78.2 328.1 82.8 313.7"/><path class="cls-9" d="M186.1,358.6,75.6,325.7c-7.2-16,12-18.4,12-18.4L197.3,345C202.9,360.2,186.1,358.6,186.1,358.6Z"/><path class="cls-4" d="M323.8,527.6c9.5,1.7,19.1,3.6,28.6,5.6a90.4,90.4,0,0,0-.8,35.9c-9.7,1-19.6,2-29.2,2.7a125.7,125.7,0,0,1-1.5-18.4A118,118,0,0,1,323.8,527.6Z"/><path class="cls-4" d="M316.5,526.2v18H295.7V523C302.3,523.9,309.3,525,316.5,526.2Z"/><path class="cls-2" d="M433.4,559.5s-128.1,21.6-170.5,13.6-28-30.4-14.4-47.2,181.7,27.2,181.7,27.2Z"/><path class="cls-4" d="M361.7,464.4l20,20.8a89.3,89.3,0,0,0-12.8,13.3L347.5,479A115.4,115.4,0,0,1,361.7,464.4Z"/><polygon class="cls-2" points="429.4 556.2 306.1 443.4 310.1 413 435.8 544.2 429.4 556.2"/><circle class="cls-4" cx="437.4" cy="553" r="12.8"/><circle class="cls-9" cx="439" cy="553" r="12.8"/><circle class="cls-4" cx="13.6" cy="551.8" r="12.8"/><circle class="cls-9" cx="12.8" cy="553.4" r="12.8"/><circle class="cls-4" cx="240.5" cy="540.2" r="25.6"/><circle class="cls-9" cx="238.9" cy="540.2" r="25.6"/><rect class="cls-1" x="207.7" y="550.6" width="47.5" height="13.61" rx="6.8" transform="translate(-353.5 409) rotate(-53.2)"/><path class="cls-3" d="M158.3,175.6s7,71,3,79-3,56-3,56l-23,4V280.3a107.5,107.5,0,0,0-6.5-35.9c-3.3-9-3.6-14.9-3.3-18.3a62,62,0,0,0,.1-11.4l-2.3-30.1Z"/><path class="cls-5" d="M123.2,184.6l35-9s.6,6,1.4,14.8c1.8,21.2,4.5,58.5,1.6,64.2-4,8-3,56-3,56l-23,4V280.3a104.9,104.9,0,0,0-6.4-35.9c-3.3-9-3.6-14.9-3.3-18.3a62,62,0,0,0,.1-11.4l-1.2-15.2Z"/><path class="cls-3" d="M233,387.2c.6-8.3,3.3-17,10.3-23.6,19-18,35,9,35,9s.6,15.1,2.6,25.8a29.7,29.7,0,0,0,2.4,8.2c4,8,6,29,0,43l-1,89v4l-8,6-26-14s.9-3,2-7.6c2.4-10.6,5.7-30.1.6-43.9a119,119,0,0,1-5-19.3l-8.7-49.2S232.1,401.4,233,387.2Z"/><path class="cls-4" d="M243.3,363.6c19-18,35,9,35,9s.6,15,2.6,25.8c-9.9-.7-34-3-47.9-11.2C233.6,378.9,236.3,370.2,243.3,363.6Z"/><path class="cls-6" d="M228.3,314.6s4-27-2-30-41-5-41-5l9.5-28.6,4.5-13.4,125-24s3,2.3,5.7,8c4.9,10,8.9,30.2-5.7,66-23,56-40,76-39,94v15s-40-1-56-14a180,180,0,0,0-30-20S234.3,342.6,228.3,314.6Z"/><path class="cls-4" d="M158.3,175.6s.6,6,1.3,14.8a47.2,47.2,0,0,0-5.3-1.8s-12.5,15.9-29.9,10.9l-1.1-14.9Z"/><path class="cls-4" d="M199.3,237.6l125-24s3,2.3,5.7,8l1.3,6s-35-8-74,21-62,10-62,10,0-3-.5-7.6Z"/><path class="cls-1" d="M135.9,77.4a60.5,60.5,0,0,1,24.4-12.9c37-9,39,0,39,0s41-11,61,35,32,61,48,73,23,52,23,52-35-8-74,21c-19,14.2-34.2,16.9-44.8,16s-17.2-6-17.2-6A111.1,111.1,0,0,0,191,228c-4.8-16.6-15-35.6-36.7-41.5,0,0-18,23-41,5,0,0-.9-25.6-3.5-46A76.3,76.3,0,0,1,135.9,77.4Z"/><path class="cls-3" d="M152.2,75.5l48,8a50.4,50.4,0,0,1-2.8,10.1c-3.4,9-10.5,20.4-24.2,17.9-22-4-24-2-26-20a36.1,36.1,0,0,1-.3-4.4C146.5,73.9,152.2,75.5,152.2,75.5Z"/><path class="cls-5" d="M203.3,211.6l4-11s-6-32,14-47,43,3,43,3l-5.5,4.5-16.5,48.5s-2,16-12,25c0,0-15,16-17,25a8.4,8.4,0,0,1-.8,2c-11.2-1-17.2-6-17.2-6A111.9,111.9,0,0,0,191,228C194.9,221.2,199.1,215.1,203.3,211.6Z"/><path class="cls-3" d="M218.3,152.6c-20,15-14,47-14,47l-4,11c-13,11-27,48-27,48s-24,35-42,52,0,35,0,35c-3-14,21-21,21-21,2-9,28-33,28-33s28-24,30-33,17-25,17-25c10-9,12-25,12-25l22-53S238.3,137.6,218.3,152.6Z"/><path class="cls-4" d="M250.2,527c1.8,1.2,4.1,2.5,6.5,3.9a62,62,0,0,0,25.6,7.7v4l-8,6-26-14S249.2,531.6,250.2,527Z"/><path class="cls-4" d="M254.3,101.6c10,6,28,58,28,58s-17,2-26,9-52,0-52,0l14-55S244.3,95.6,254.3,101.6Z"/><path class="cls-1" d="M254.3,99.6c10,6,28,58,28,58s-17,2-26,9-52,0-52,0l14-55S244.3,93.6,254.3,99.6Z"/><path class="cls-4" d="M152.2,74.5l48,8a50.4,50.4,0,0,1-2.8,10.1l-1.6,1.3a35.1,35.1,0,0,1-48.9-7.8C146.5,72.9,152.2,74.5,152.2,74.5Z"/><path class="cls-3" d="M174.4,28.7a35,35,0,0,1,35.9,34.1v1.8a35,35,0,0,1-70,0A35,35,0,0,1,174.4,28.7Z"/><path class="cls-4" d="M140.2,64.6a35,35,0,1,1,70-1.8c-.1.2-.3.3-.4.4-4.4,3.6-10.7,2.8-16.3,1.9-11.2-1.7-23.2-2.7-33.3,2.5-3.6,1.8-6.8,4.3-10.5,5.8a14,14,0,0,1-8.1.7,34,34,0,0,1-1.3-9.5Z"/><path class="cls-6" d="M212.2,32.4c-5.9-.7-5.9-5.1-6.9-9.9a40.5,40.5,0,0,0-7.9-17.4,12.1,12.1,0,0,0-4.4-4,14,14,0,0,0-7.3-1c-8.6.5-17,3.4-25.6,2.5-3.3-.4-6.5-1.2-9.8-1.4-10.7-.5-20.5,7.2-24.6,16.5s-3.4,20.1-1,29.9c1.1,4.8,2.9,9.9,7,12.9,1.8,1.5,4.1,2.4,5.7,4s3,5.2,5.3,7.1,7.3,2.2,10.9.9,6.6-3.6,10.1-5.2c9.6-4.7,21.1-3.7,31.8-2.2,5.3.7,11.3,1.4,15.5-1.7s4.2-6.1,7-8.7c5.2-4.9,15.4-5.1,17.6-11.8C240.1,28.8,218.9,33.3,212.2,32.4Z"/><path class="cls-5" d="M240.1,218.4s21.7-3.3,29.7-21.3,34-25,34-25"/><rect class="cls-1" x="205.8" y="568.1" width="60" height="19"/><rect class="cls-2" x="205.8" y="568.1" width="60" height="19"/><path class="cls-6" d="M290.3,540.6h0l4,25s-63,7-90,5-13-14-13-14c6.1,0,13-3.5,17.7-6.5a59.9,59.9,0,0,1,11.6-5.8c12.1-4.4,25.7-18.7,25.7-18.7s5.1,4.2,10.4,7.2A60.7,60.7,0,0,0,290.3,540.6Z"/></g></g></g></svg>