<svg xmlns="http://www.w3.org/2000/svg" viewBox="0 0 31.6 69"><defs><style>.cls-1{fill:#ffb8b8;}.cls-2{fill:#6c63ff;}.cls-3{fill:#ccc;}.cls-4{fill:#2f2e41;}.cls-5{fill:#b3b3b3;}</style></defs><g id="Layer_2" data-name="Layer 2"><g id="Layer_1-2" data-name="Layer 1"><g id="broken-foot"><path class="cls-1" d="M10.8,35.6a1.2,1.2,0,0,0,.1-1.9h-.1l-.2-.2-.8-5-3,1,1.6,4.4a1.6,1.6,0,0,0,.5,2.1,1.9,1.9,0,0,0,1.9-.2Z"/><path class="cls-2" d="M7.6,33.2,5.7,24.4a5.2,5.2,0,0,1,1.5-4.8c2.4-2.3,5.5-5.3,6.6-6.1a6.2,6.2,0,0,1,3.5-1h0l1.6,1.6-3.5,5.8L10,23.3l.6,8.7Z"/><path class="cls-3" d="M6.3,21.2h8a.6.6,0,0,1,.6.6h0a.6.6,0,0,1-.6.6h-8a.6.6,0,0,1-.6-.6h0c-.1-.3.1-.5.4-.6Z"/><path class="cls-3" d="M6.3,34.8h8a.6.6,0,0,1,.6.6h0a.6.6,0,0,1-.6.6h-8a.6.6,0,0,1-.6-.6h0a.6.6,0,0,1,.6-.6Z"/><path class="cls-3" d="M10.4,68.9c-.2,0-.3-.2-.4-.3L6.1,21.8c-.1-.2.1-.3.2-.3s.4.1.4.3L10.3,65l3.6-43.2c0-.2.2-.3.4-.3s.3.1.2.3L10.7,68.6l-.3.3Z"/><circle class="cls-1" cx="19.3" cy="6.5" r="4.1"/><polygon class="cls-1" points="7.1 67 5.1 66.3 6.6 58.5 9.5 59.5 7.1 67"/><path class="cls-4" d="M7,68.7l-6.3-2h0a2.5,2.5,0,0,1,3-1.6h.1l4,1.2Z"/><polygon class="cls-1" points="21.3 67 19.2 67 18.3 59 21.3 59 21.3 67"/><path class="cls-4" d="M15.4,68.8h6.2V66.4H17.7a2.5,2.5,0,0,0-2.3,2.4Z"/><path class="cls-4" d="M21.2,64.4h-.7a7.4,7.4,0,0,1-2.5-.5c-.2-.1-.2-1.2-.1-7.5.1-4.7.2-10.5,0-13.6a.6.6,0,0,0-.6-.5.5.5,0,0,0-.5.3c-1.5,3.6-4.2,11.7-5.9,17L9.5,63.8c0,.3-.2.6-.4.6H8.7L5.3,63.2a.8.8,0,0,1-.5-.8c.4-1.7,7.1-29.8,7.6-32.5a.9.9,0,0,1,.8-.5h.1l3.9.9,4.9,1h0c.2.1.3.1.4.3a4.2,4.2,0,0,0,1.6,1.1c.5.2-.5.2-.1.4S23.3,58.5,22,64a.6.6,0,0,1-.8.4Z"/><path class="cls-4" d="M21.1,10.1c-.3-1,.9-3.2.7-4.2s-1.8-.2-2.2-.8A2.3,2.3,0,0,0,17.9,4c-.8,0-1.6.6-2.4.3a1.6,1.6,0,0,1-.7-2h0A7.4,7.4,0,0,1,16.7.7a5.6,5.6,0,0,1,4-.6,7.4,7.4,0,0,1,2.1,1.3,6.9,6.9,0,0,1,1.7,1.7,4.7,4.7,0,0,1,0,4.3,5.9,5.9,0,0,1-3.3,2.9"/><path class="cls-2" d="M11,33.8c.4-.8,1.1-4.2,1.9-10,.6-4,1.1-8.1,1.3-10.1,0-.3.3-.6.6-.8l.5-.2a11,11,0,0,1,11.5,1.6h0c0,.1.9,4.7-.9,7.7s-1.7,11.2-1.7,11.2h-.1c-2.7-.7-12.9.6-13.1.6Z"/><path class="cls-3" d="M18.5,23.2h8a.6.6,0,0,1,.6.6h0a.6.6,0,0,1-.6.6h-8c-.3.1-.5-.1-.6-.4v-.2h0a.6.6,0,0,1,.6-.6Z"/><path class="cls-3" d="M18.5,36.8h8a.6.6,0,0,1,.6.6h0c0,.4-.2.7-.6.7h-8c-.4,0-.6-.3-.6-.7h0a.6.6,0,0,1,.6-.6Z"/><path class="cls-3" d="M22.6,69c-.2,0-.3-.1-.4-.3L18.3,23.9c-.1-.2,0-.3.2-.4h0c.2,0,.4.1.4.3h0l3.6,41.3,3.6-41.3c0-.2.2-.3.4-.3s.3.2.2.3L22.9,68.7a.3.3,0,0,1-.3.3Z"/><path class="cls-1" d="M20,37a1.5,1.5,0,0,1,1.1-1.8h.3l3.3-3.7,2,2.4-3.8,2.8a1.5,1.5,0,0,1-1.5,1.5A1.4,1.4,0,0,1,20,37Z"/><path class="cls-2" d="M21.9,34.4l5.2-7-2.7-5.8.2-6.8,2.3-.4h0a5.1,5.1,0,0,1,2.3,2.7c.9,2.9,1.7,5.8,2.3,8.7a5.2,5.2,0,0,1-1.3,4.8L23.7,37Z"/><path class="cls-3" d="M0,67.1l7.1,1.7a.4.4,0,0,0,.7-.2h0L14,52.1v-.4l-.3-.3-5.4-2H7.8l-.3.3h0L3.7,64.2H3.6A5.4,5.4,0,0,0,.4,65.5,2.4,2.4,0,0,0,0,67.1Z"/><rect class="cls-5" x="7.9" y="54.9" width="0.3" height="6.6" transform="translate(-50.6 60.1) rotate(-84)"/><rect class="cls-5" x="6.8" y="58.7" width="0.3" height="5.8" transform="translate(-52.1 42.7) rotate(-65.8)"/><polygon class="cls-5" points="12.4 56.3 6.2 54.3 6.3 54 12.5 56 12.4 56.3"/><polygon class="cls-5" points="13 55 6.8 52 6.9 51.7 13.1 54.7 13 55"/><rect class="cls-5" x="6" y="62" width="0.3" height="5.9" transform="translate(-47.3 27.4) rotate(-49.5)"/><rect class="cls-5" x="3.4" y="64.1" width="0.3" height="4.3" transform="translate(-27 7.4) rotate(-24.4)"/></g></g></g></svg>