<?xml version="1.0" encoding="utf-8"?>
<!-- Generator: Adobe Illustrator 25.2.0, SVG Export Plug-In . SVG Version: 6.00 Build 0)  -->
<svg version="1.1" id="Layer_1" xmlns="http://www.w3.org/2000/svg" xmlns:xlink="http://www.w3.org/1999/xlink" x="0px" y="0px"
	 viewBox="0 0 1047.8 442.5" style="enable-background:new 0 0 1047.8 442.5;" xml:space="preserve">
<style type="text/css">
	.st0{fill:#F2F2F2;}
	.st1{fill:#CCCCCC;}
	.st2{fill:#3F3D56;}
	.st3{fill:#E6E6E6;}
	.st4{fill:#FFFFFF;}
	.st5{fill:#FF6584;}
	.st6{opacity:3.000000e-02;enable-background:new    ;}
</style>
<g id="Layer_2_1_">
	<g id="Layer_1-2">
		<g id="city-bg">
			<g id="Layer_1-2-2">
				<g id="city-bg-2">
					<g id="city-bg-2-2">
						<path class="st0" d="M29.3,395.5c0-9.5,7.7-17.2,17.2-17.2c9.5,0,17.2,7.7,17.2,17.2l0,0"/>
						<path class="st1" d="M46.5,395.5c-0.3,0-0.5-0.2-0.5-0.5v-9c0-0.3,0.2-0.5,0.5-0.5c0.2,0,0.4,0.3,0.4,0.5l0,0v9
							C46.9,395.2,46.7,395.5,46.5,395.5z"/>
						<path class="st1" d="M46.5,392.4h-0.3l-5.6-4.8c-0.2-0.2-0.2-0.5,0-0.7c0.1-0.2,0.4-0.2,0.6,0l0,0l5.6,4.7
							c0.2,0.2,0.2,0.5,0,0.7l-0.3,0.2V392.4z"/>
						<path class="st0" d="M82.2,395.5C81.5,386,88.5,377.7,98,377c9.5-0.7,17.8,6.3,18.5,15.8c0.1,0.9,0.1,1.7,0,2.6"/>
						<path class="st1" d="M99.4,395.5c-0.3,0-0.5-0.2-0.5-0.5v-9c0-0.3,0.2-0.5,0.5-0.5c0.2,0,0.4,0.3,0.4,0.5v9
							C99.8,395.2,99.6,395.5,99.4,395.5z"/>
						<path class="st1" d="M99.4,392.4h-0.3l-5.6-4.8c-0.2-0.1-0.2-0.4-0.1-0.7h0.7l5.6,4.7c0.2,0.2,0.2,0.5,0,0.7l-0.3,0.2
							L99.4,392.4z"/>
						<circle class="st0" cx="784.8" cy="34.3" r="33"/>
						<ellipse class="st0" cx="110.6" cy="435.5" rx="30" ry="7"/>
						<path class="st0" d="M93.5,138c7.8-24.6,27.1-43.7,49.8-55c27.1-13.4,58.1-15,87.5-9.7c31.7,5.6,61.3,18.6,90,32.9
							s55.7,28.6,85,40.1c58.4,23,120.2,35.8,182.9,37.9c56.5,1.9,116.8-4.3,165.1-36c44.3-29,72.5-77,87.1-127
							c1.9-6.4,3.6-12.8,5-19.3c0.2-0.8-0.2-1.6-1-1.9c-0.8-0.2-1.7,0.3-1.9,1.1l0,0c-11.8,52.2-37,103.7-80.2,137
							c-46.6,36-107.8,44.3-165.1,43.4c-63.4-1.1-126.1-13.3-185.3-35.8c-30-11.4-58.3-26.3-87-40.6S268.6,78,237.7,71.6
							c-28.1-5.9-58.3-6.3-85.4,4.2c-22.3,8.6-42.7,24-54.6,45.1c-2.9,5.2-5.3,10.6-7.1,16.3C90,139,92.9,139.8,93.5,138z"/>
						<path class="st2" d="M521.8,367.7c0.6,0,1-0.4,1-1c0.1-0.5-0.3-0.9-0.8-1c0,0,0,0,0,0h-9.7v-4h9.5c0.6,0,1-0.4,1-1
							c0.1-0.5-0.3-0.9-0.8-1c0,0,0,0,0,0h-81.2c-0.5,0-0.9,0.3-1,0.8l0,0v0.2c-0.1,0.4,0.1,0.9,0.6,1c0.1,0,0.1,0,0.2,0
							c0.1,0.1,0.1,0.1,0.2,0h9.5v4h-9.5c-0.5,0-0.9,0.3-1,0.8l0,0v0.2c-0.1,0.4,0.1,0.9,0.6,1c0.1,0,0.1,0,0.2,0
							c0.1,0.1,0.1,0.1,0.2,0h9.5v4h-9.5c-0.5,0-0.9,0.3-1,0.8l0,0v0.2c-0.1,0.4,0.1,0.9,0.6,1c0.1,0,0.1,0,0.2,0
							c0.1,0.1,0.1,0.1,0.2,0h9.5v4h-8.5c-1.1,0-2,0.9-2,2s0.9,2,2,2h8.1c-0.1,0.2-0.1,0.3-0.1,0.5v14c0,0.8,0.7,1.5,1.5,1.5
							s1.5-0.7,1.5-1.5v-14c0-0.2,0-0.3-0.1-0.5h57.2c-0.1,0.2-0.1,0.3-0.1,0.5v14c0,0.8,0.7,1.5,1.5,1.5s1.5-0.7,1.5-1.5v-14
							c0-0.2,0-0.3-0.1-0.5h8.1c1.1,0,2-0.9,2-2s-0.9-2-2-2h-8.5v-4h9.5c0.6,0,1-0.4,1-1c0.1-0.5-0.3-0.9-0.8-1c0,0,0,0,0,0h-9.7v-4
							H521.8z M452.3,361.7h58v4h-58V361.7z M510.3,377.7h-58v-4h58V377.7z M510.3,371.7h-58v-4h58V371.7z"/>
						<path class="st3" d="M201.4,324.9c0-17.7-14.3-59.6-32-59.6s-32,41.9-32,59.6c0,17.7,14.3,32,32,32S201.4,342.6,201.4,324.9z"
							/>
						<path class="st0" d="M193.4,324.9c0-17.7-14.3-59.6-32-59.6s-32,41.9-32,59.6c0,17.7,14.3,32,32,32S193.4,342.6,193.4,324.9z"
							/>
						<path class="st1" d="M162.4,396.5c-0.5,0.1-0.9-0.2-1-0.7v-89.5c-0.1-0.5,0.3-0.9,0.8-1c0,0,0,0,0,0h0.2c0.5,0.1,0.9,0.5,1,1
							v89.2C163.4,396.1,163,396.5,162.4,396.5z"/>
						<path class="st1" d="M162.4,320.9c-0.5,0.1-0.9-0.2-1-0.7l0,0V320c0-0.3,0.1-0.5,0.3-0.7l13.1-13.1c0.4-0.3,1-0.3,1.4,0
							c0.4,0.4,0.4,1.1,0,1.5l-13.1,13C162.9,320.8,162.7,321,162.4,320.9z"/>
						<path class="st2" d="M545.8,397.3c-0.5,0.1-0.9-0.2-1-0.7v-89.5c-0.1-0.5,0.3-0.9,0.8-1c0,0,0,0,0,0h0.2c0.5,0.1,0.9,0.5,1,1
							v89.2C546.8,396.9,546.4,397.3,545.8,397.3z"/>
						<path class="st3" d="M652.8,325.7c0-17.7-14.3-59.6-32-59.6s-32,41.9-32,59.6c0,17.7,14.3,32,32,32S652.8,343.4,652.8,325.7z"
							/>
						<path class="st0" d="M644.8,325.7c0-17.7-14.3-59.6-32-59.6s-32,41.9-32,59.6c0,17.7,14.3,32,32,32S644.8,343.4,644.8,325.7z"
							/>
						<path class="st1" d="M613.8,397.3c-0.5,0.1-0.9-0.2-1-0.7v-89.5c-0.1-0.5,0.3-0.9,0.8-1c0,0,0,0,0,0h0.2c0.5,0.1,0.9,0.5,1,1
							v89.2C614.8,396.9,614.4,397.3,613.8,397.3z"/>
						<path class="st1" d="M613.8,321.7c-0.5,0.1-0.9-0.2-1-0.7l0,0v-0.2c0-0.3,0.1-0.5,0.3-0.7l13.1-13.1c0.4-0.3,1-0.3,1.4,0
							c0.4,0.4,0.4,1.1,0,1.5l-13.1,13C614.3,321.6,614.1,321.8,613.8,321.7z"/>
						<path class="st3" d="M696.8,226.8h-16c-2.5,0-4.5-2-4.5-4.5l0,0v-21c0-2.5,2-4.5,4.5-4.5h16c2.5,0,4.5,2,4.5,4.5v21
							C701.3,224.8,699.3,226.8,696.8,226.8z"/>
						<path class="st3" d="M831.8,397.8h-82c-4.7,0-8.5-3.8-8.5-8.5v-159c0-4.7,3.8-8.5,8.5-8.5h82c4.7,0,8.5,3.8,8.5,8.5v159
							C840.3,394,836.5,397.8,831.8,397.8z"/>
						<path class="st0" d="M782.8,397.8h-142c-4.7,0-8.5-3.8-8.5-8.5v-159c0-4.7,3.8-8.5,8.5-8.5h142c4.7,0,8.5,3.8,8.5,8.5v159
							C791.3,394,787.5,397.8,782.8,397.8z"/>
						<path class="st0" d="M681.8,226.8h-16c-2.5,0-4.5-2-4.5-4.5l0,0v-21c0-2.5,2-4.5,4.5-4.5h16c2.5,0,4.5,2,4.5,4.5v21
							C686.3,224.8,684.3,226.8,681.8,226.8z"/>
						<path class="st4" d="M702.8,300.3h-19c-1.4,0-2.5-1.1-2.5-2.5v-29c0-1.4,1.1-2.5,2.5-2.5h19c1.4,0,2.5,1.1,2.5,2.5v29
							C705.3,299.2,704.2,300.3,702.8,300.3z"/>
						<path class="st4" d="M739.8,300.3h-19c-1.4,0-2.5-1.1-2.5-2.5v-29c0-1.4,1.1-2.5,2.5-2.5h19c1.4,0,2.5,1.1,2.5,2.5v29
							C742.3,299.2,741.2,300.3,739.8,300.3z"/>
						<path class="st4" d="M702.8,353.3h-19c-1.4,0-2.5-1.1-2.5-2.5v-29c0-1.4,1.1-2.5,2.5-2.5h19c1.4,0,2.5,1.1,2.5,2.5v29
							C705.3,352.2,704.2,353.3,702.8,353.3z"/>
						<path class="st4" d="M739.8,353.3h-19c-1.4,0-2.5-1.1-2.5-2.5v-29c0-1.4,1.1-2.5,2.5-2.5h19c1.4,0,2.5,1.1,2.5,2.5v29
							C742.3,352.2,741.2,353.3,739.8,353.3z"/>
						<path class="st3" d="M1046.8,398.3H1c-0.5,0.1-0.9-0.2-1-0.7l0,0v-0.2c-0.1-0.5,0.3-0.9,0.8-1c0,0,0,0,0,0h1046
							c0.5,0.1,0.9,0.5,1,1c0.1,0.4-0.1,0.9-0.6,1c-0.1,0-0.1,0-0.2,0L1046.8,398.3z"/>
						<path class="st3" d="M362.8,433.3h-93c-0.5,0.1-0.9-0.2-1-0.7l0,0v-0.2c-0.1-0.5,0.3-0.9,0.8-1c0,0,0,0,0,0h93.2
							c0.5,0.1,0.9,0.5,1,1c0.1,0.4-0.1,0.9-0.6,1c-0.1,0-0.1,0-0.2,0L362.8,433.3z"/>
						<path class="st3" d="M593.8,433.3h-93c-0.5,0.1-0.9-0.2-1-0.7l0,0v-0.2c-0.1-0.5,0.3-0.9,0.8-1c0,0,0,0,0,0h93.2
							c0.5,0.1,0.9,0.5,1,1c0.1,0.4-0.1,0.9-0.6,1c-0.1,0-0.1,0-0.2,0L593.8,433.3z"/>
						<path class="st3" d="M824.8,433.3h-93c-0.5,0.1-0.9-0.2-1-0.7l0,0v-0.2c-0.1-0.5,0.3-0.9,0.8-1c0,0,0,0,0,0h93.2
							c0.5,0.1,0.9,0.5,1,1c0.1,0.4-0.1,0.9-0.6,1c-0.1,0-0.1,0-0.2,0L824.8,433.3z"/>
						<path class="st3" d="M415.8,325.7c0-17.7-14.3-59.6-32-59.6s-32,41.9-32,59.6c0,17.7,14.3,32,32,32S415.8,343.4,415.8,325.7z"
							/>
						<path class="st0" d="M407.8,325.7c0-17.7-14.3-59.6-32-59.6s-32,41.9-32,59.6c0,17.7,14.3,32,32,32S407.8,343.4,407.8,325.7z"
							/>
						<path class="st1" d="M376.8,397.3c-0.5,0.1-0.9-0.2-1-0.7v-89.5c-0.1-0.5,0.3-0.9,0.8-1c0,0,0,0,0,0h0.2c0.5,0.1,0.9,0.5,1,1
							v89.2C377.8,396.9,377.4,397.3,376.8,397.3z"/>
						<path class="st1" d="M376.8,321.7c-0.5,0.1-0.9-0.2-1-0.7l0,0v-0.2c0-0.3,0.1-0.5,0.3-0.7l13.1-13.1c0.4-0.3,1-0.3,1.4,0
							c0.4,0.4,0.4,1.1,0,1.5l-13.1,13C377.3,321.6,377.1,321.8,376.8,321.7z"/>
						<path class="st3" d="M926.8,325.7c0-17.7-14.3-59.6-32-59.6s-32,41.9-32,59.6c0,17.7,14.3,32,32,32S926.8,343.4,926.8,325.7z"
							/>
						<path class="st0" d="M918.8,325.7c0-17.7-14.3-59.6-32-59.6s-32,41.9-32,59.6c0,17.7,14.3,32,32,32S918.8,343.4,918.8,325.7z"
							/>
						<path class="st1" d="M887.8,397.3c-0.5,0.1-0.9-0.2-1-0.7v-89.5c-0.1-0.5,0.3-0.9,0.8-1c0,0,0,0,0,0h0.2c0.5,0.1,0.9,0.5,1,1
							v89.2C888.8,396.9,888.4,397.3,887.8,397.3z"/>
						<path class="st1" d="M887.8,321.7c-0.5,0.1-0.9-0.2-1-0.7l0,0v-0.2c0-0.3,0.1-0.5,0.3-0.7l13.1-13.1c0.4-0.3,1-0.3,1.4,0
							c0.4,0.4,0.4,1.1,0,1.5l-13.1,13C888.3,321.6,888.1,321.8,887.8,321.7z"/>
						<path class="st2" d="M556.8,336.8h-22c-1.4,0-2.5-1.1-2.5-2.5v-22c0-1.4,1.1-2.5,2.5-2.5h22c1.4,0,2.5,1.1,2.5,2.5v22
							C559.3,335.7,558.2,336.8,556.8,336.8z"/>
						<path class="st5" d="M194.8,438h-0.6c0.1-0.1-2.6-6.9-2.6-6.9l-1.6-3.8l-1-2.6l-1.6-3.9l-1.7-4.1c-0.1-0.5-0.6-0.8-1.1-0.7
							l0,0c-0.3,0.2-0.5,0.4-0.7,0.7l-1.7,4.1l-1.6,3.9l-1,2.6l-1.6,3.8c0,0-2.6,6.8-2.6,6.9h-0.6c-0.8,0-1.5,0.7-1.5,1.5
							s0.7,1.5,1.5,1.5h20c0.8,0,1.5-0.7,1.5-1.5S195.6,438,194.8,438L194.8,438z"/>
						<polygon class="st0" points="189,424.7 180.6,424.7 182.2,420.8 187.4,420.8 						"/>
						<polygon class="st0" points="191.6,431 178,431 179.6,427.3 190,427.3 						"/>
						<path class="st0" d="M913.3,395.5c0-9.5,7.7-17.2,17.2-17.2s17.2,7.7,17.2,17.2l0,0"/>
						<path class="st1" d="M930.5,395.5c-0.3,0-0.5-0.2-0.5-0.5v-9c0-0.3,0.2-0.5,0.5-0.5c0.2,0,0.4,0.3,0.4,0.5v9
							C930.9,395.2,930.7,395.5,930.5,395.5z"/>
						<path class="st1" d="M930.5,392.4h-0.3l-5.6-4.8c-0.2-0.2-0.2-0.5,0-0.7c0.1-0.2,0.4-0.2,0.6,0l0,0l5.6,4.7
							c0.2,0.2,0.2,0.5,0,0.7l-0.3,0.2V392.4z"/>
						<path class="st0" d="M966.2,395.5c-0.7-9.5,6.3-17.8,15.8-18.5s17.8,6.3,18.5,15.8l0,0c0.1,0.9,0.1,1.7,0,2.6"/>
						<path class="st1" d="M983.4,395.5c-0.3,0-0.5-0.2-0.5-0.5l0,0v-9c0-0.3,0.2-0.5,0.5-0.5c0.2,0,0.4,0.3,0.4,0.5v9
							C983.8,395.2,983.6,395.5,983.4,395.5z"/>
						<path class="st1" d="M983.4,392.4h-0.3l-5.6-4.8c-0.2-0.1-0.2-0.4-0.1-0.7h0.7l5.6,4.7c0.2,0.2,0.2,0.5,0,0.7l-0.3,0.2
							L983.4,392.4z"/>
					</g>
					<g id="cloud">
						<path class="st0" d="M137.7,32.8l-4.7,3l2.8-5.2c-0.8-0.6-1.8-0.9-2.8-1h-1.1l-1.6,1l0.7-1.2c-1.1-0.4-2.1-1.1-2.8-2.1
							l-2.8,1.8l1.8-3.3c-1.6-1.9-3.9-3.1-6.4-3.2c-3,0.2-5.8,1.9-7.3,4.5c-1,1.7-2.8,2.7-4.8,2.6h-0.2c-3.3,0-5.9,3.7-5.9,8.2
							s2.6,8.2,5.9,8.2c0.7,0,1.4-0.2,2.1-0.5c2.2-1,4.8-1.1,7.1-0.1c1.9,0.9,4.2,0.9,6.1,0c2.3-0.9,4.8-0.9,7.1,0.1
							c0.6,0.4,1.3,0.5,2,0.5c3.3,0,5.9-3.7,5.9-8.2C138.9,36.1,138.5,34.4,137.7,32.8z"/>
						<path class="st6" d="M128.9,44.9c-1.7-0.2-3.5-0.1-5.1,0.5c-1.9,0.9-4.2,0.9-6.1,0c-2.3-1-4.9-0.9-7.1,0.1
							c-0.6,0.4-1.4,0.5-2.1,0.5c-2.9,0-5.3-2.9-5.8-6.8c0.6-0.4,1.1-0.9,1.4-1.6c1.5-2.6,4.3-4.3,7.3-4.5c3,0.1,5.7,1.8,7.2,4.4
							c1,1.7,2.8,2.7,4.8,2.6h0.1C125.9,40.3,127.9,42.2,128.9,44.9z"/>
					</g>
					<g id="cloud-2">
						<path class="st0" d="M442.3,49.8l-6.2,3.9l3.7-6.8c-1.1-0.8-2.4-1.2-3.7-1.3h-1.4l-2.1,1.3l0.9-1.6c-1.5-0.4-2.8-1.4-3.6-2.8
							l-3.7,2.4l2.4-4.3c-2.1-2.6-5.1-4.1-8.4-4.2c-3.9,0-7.3,2.3-9.6,5.9c-1.3,2.2-3.7,3.5-6.3,3.4h-0.2c-4.3,0-7.8,4.9-7.8,10.8
							s3.5,10.8,7.8,10.8c1,0.1,1.9-0.2,2.7-0.7c3-1.4,6.4-1.4,9.4-0.2c2.6,1.1,5.4,1.1,8,0c3-1.2,6.4-1.2,9.3,0.2
							c0.8,0.5,1.8,0.7,2.7,0.7c4.3,0,7.8-4.9,7.8-10.8C443.9,54.2,443.3,51.9,442.3,49.8z"/>
						<path class="st6" d="M430.7,65.7c-2.2-0.4-4.5-0.1-6.6,0.7c-2.6,1.1-5.4,1.1-8,0c-3-1.3-6.4-1.2-9.4,0.2
							c-0.8,0.5-1.8,0.7-2.7,0.7c-3.8,0-7-3.8-7.6-8.9c0.8-0.5,1.4-1.2,1.9-2c2.2-3.6,5.7-5.9,9.6-5.9s7.3,2.3,9.5,5.8
							c1.4,2.2,3.7,3.5,6.3,3.5h0.1C426.8,59.7,429.4,62.1,430.7,65.7z"/>
					</g>
					<g id="cloud-3">
						<path class="st0" d="M591.5,33.1l-3.8,2.4l2.3-4.2c-0.7-0.5-1.5-0.8-2.3-0.8h-0.9l-1.3,0.8l0.5-1c-0.9-0.3-1.7-0.9-2.2-1.7
							l-2.3,1.5l1.4-2.6c-1.2-1.6-3.1-2.5-5.1-2.6c-2.5,0.1-4.7,1.5-5.9,3.6c-0.8,1.4-2.3,2.2-3.9,2.1h-0.1c-2.6,0-4.7,3-4.7,6.6
							s2.1,6.6,4.7,6.6c0.6,0.1,1.2-0.1,1.7-0.4c1.8-0.8,3.9-0.9,5.7-0.1c1.6,0.7,3.3,0.7,4.9,0c1.8-0.8,3.9-0.7,5.7,0.1
							c0.5,0.3,1,0.5,1.6,0.4c2.6,0,4.7-3,4.7-6.6C592.5,35.8,592.2,34.3,591.5,33.1z"/>
						<path class="st6" d="M584.4,42.8c-1.4-0.2-2.8-0.1-4.1,0.4c-1.6,0.7-3.3,0.7-4.9,0c-1.8-0.8-3.9-0.7-5.7,0.1
							c-0.5,0.3-1.1,0.5-1.7,0.4c-2.3,0-4.3-2.3-4.7-5.4c0.5-0.3,0.9-0.8,1.2-1.3c1.2-2.1,3.4-3.5,5.9-3.6c2.4,0.1,4.6,1.5,5.8,3.6
							c0.8,1.4,2.3,2.2,3.9,2.1h0.1C582,39.1,583.6,40.6,584.4,42.8z"/>
					</g>
					<g id="cloud-4">
						<path class="st0" d="M59.6,86.6L55.8,89l2.3-4.2c-0.7-0.5-1.5-0.8-2.3-0.8h-0.9l-1.3,0.8l0.5-1c-0.9-0.3-1.7-0.9-2.2-1.7
							l-2.3,1.5l1.4-2.7c-1.2-1.6-3.1-2.5-5.1-2.6c-2.5,0.1-4.7,1.5-5.9,3.6c-0.8,1.4-2.3,2.2-3.9,2.1H36c-2.6,0-4.7,3-4.7,6.6
							s2.1,6.6,4.7,6.6c0.6,0.1,1.2-0.1,1.7-0.4c1.8-0.8,3.9-0.9,5.7-0.1c1.6,0.7,3.3,0.7,4.9,0c1.8-0.8,3.9-0.7,5.7,0.1
							c0.5,0.3,1,0.5,1.6,0.4c2.6,0,4.7-3,4.7-6.6C60.5,89.2,60.3,87.8,59.6,86.6z"/>
						<path class="st6" d="M52.5,96.3c-1.4-0.2-2.8-0.1-4.1,0.4c-1.6,0.7-3.3,0.7-4.9,0c-1.8-0.8-3.9-0.7-5.7,0.1
							c-0.5,0.3-1.1,0.5-1.7,0.4c-2.3,0-4.3-2.3-4.7-5.4c0.5-0.3,0.9-0.8,1.2-1.3c1.2-2.1,3.4-3.5,5.9-3.6c2.4,0.1,4.6,1.5,5.8,3.6
							c0.8,1.4,2.3,2.2,3.9,2.1h0.1C50.1,92.7,51.7,94.2,52.5,96.3z"/>
					</g>
					<g id="cloud-5">
						<path class="st0" d="M703.9,90.2l-6.3,4l3.8-6.9c-1.1-0.8-2.4-1.3-3.8-1.4h-1.4l-2.1,1.3l0.9-1.7c-1.5-0.5-2.8-1.5-3.7-2.8
							l-3.8,2.4l2.4-4.4c-2.1-2.6-5.2-4.2-8.5-4.3c-4,0-7.5,2.3-9.7,6c-1.4,2.3-3.9,3.6-6.5,3.5H665c-4.4,0-7.9,4.9-7.9,11
							s3.5,11,7.9,11c1,0.1,1.9-0.2,2.7-0.7c3-1.4,6.5-1.5,9.6-0.2c2.6,1.2,5.5,1.2,8.1,0c3.1-1.2,6.5-1.2,9.5,0.2
							c0.8,0.5,1.8,0.7,2.7,0.7c4.4,0,7.9-4.9,7.9-11C705.5,94.6,705,92.3,703.9,90.2z"/>
						<path class="st6" d="M692.1,106.4c-2.3-0.4-4.6-0.1-6.8,0.7c-2.6,1.2-5.5,1.2-8.1,0c-3.1-1.3-6.6-1.2-9.6,0.2
							c-0.9,0.5-1.8,0.7-2.8,0.7c-3.9,0-7.1-3.9-7.8-9.1c0.8-0.5,1.5-1.2,1.9-2.1c2.3-3.7,5.8-6,9.7-6s7.4,2.3,9.7,5.9
							c1.4,2.3,3.9,3.6,6.5,3.5h0.1C688.1,100.3,690.8,102.8,692.1,106.4z"/>
					</g>
					<g id="cloud-6">
						<path class="st0" d="M937.5,44.3l-3.6,2.3l2.2-4c-0.6-0.5-1.4-0.8-2.2-0.8H933l-1.2,0.8l0.5-1c-0.9-0.3-1.6-0.8-2.1-1.6
							l-2.2,1.3l1.4-2.5c-1.2-1.5-3-2.4-4.9-2.5c-2.3,0.1-4.4,1.5-5.6,3.5c-0.8,1.3-2.2,2.1-3.7,2H915c-2.5,0-4.6,2.9-4.6,6.4
							s2,6.4,4.6,6.4c0.6,0.1,1.1-0.1,1.6-0.4c1.7-0.8,3.7-0.8,5.5-0.1c1.5,0.7,3.2,0.7,4.7,0c1.8-0.7,3.8-0.7,5.5,0.1
							c0.5,0.3,1,0.5,1.6,0.4c2.5,0,4.6-2.9,4.6-6.4C938.5,46.8,938.2,45.5,937.5,44.3z"/>
						<path class="st6" d="M930.7,53.6c-1.3-0.2-2.6,0-3.9,0.4c-1.5,0.7-3.2,0.7-4.7,0c-1.8-0.7-3.8-0.7-5.5,0.1
							c-0.5,0.3-1,0.5-1.6,0.4c-2.2,0-4.1-2.3-4.5-5.2c0.4-0.3,0.8-0.7,1.1-1.2c1.2-2,3.3-3.4,5.6-3.5c2.3,0.1,4.4,1.4,5.6,3.4
							c0.8,1.3,2.2,2.1,3.7,2h0.1C928.4,50.1,929.9,51.5,930.7,53.6z"/>
					</g>
					<g id="cloud-7">
						<path class="st0" d="M1021.2,121.5l-3.4,2.2l2.1-3.8c-0.6-0.4-1.3-0.7-2.1-0.7h-0.8l-1.2,0.7l0.5-0.9c-0.8-0.3-1.5-0.8-2-1.5
							l-2.1,1.3l1.3-2.4c-1.1-1.4-2.8-2.2-4.6-2.3c-2.2,0.1-4.2,1.4-5.3,3.3c-0.7,1.2-2.1,1.9-3.5,1.9h-0.1c-2.4,0-4.3,2.7-4.3,6
							c0,3.3,1.9,6,4.3,6c0.5,0.1,1.1-0.1,1.5-0.4c1.6-0.7,3.5-0.8,5.2-0.1c1.4,0.6,3,0.6,4.4,0c1.6-0.7,3.5-0.6,5.1,0.1
							c0.5,0.3,1,0.4,1.5,0.4c2.4,0,4.3-2.7,4.3-6C1022.1,124,1021.8,122.7,1021.2,121.5z"/>
						<path class="st6" d="M1014.8,130.2c-1.2-0.2-2.5,0-3.7,0.4c-1.4,0.6-3,0.6-4.4,0c-1.7-0.7-3.6-0.6-5.2,0.1
							c-0.5,0.3-1,0.4-1.5,0.4c-2.1,0-3.9-2.1-4.2-4.9c0.4-0.3,0.8-0.7,1.1-1.1c1.1-1.9,3.1-3.2,5.3-3.3c2.2,0.1,4.2,1.3,5.3,3.2
							c0.7,1.2,2.1,1.9,3.5,1.9h0.1C1012.7,126.9,1014.1,128.3,1014.8,130.2z"/>
					</g>
				</g>
			</g>
		</g>
	</g>
</g>
</svg>
