<svg xmlns="http://www.w3.org/2000/svg" viewBox="0 0 201.8 155"><defs><style>.cls-1{fill:#f3ad55;}.cls-2{fill:#fbdca3;}.cls-3{opacity:0.1;isolation:isolate;}.cls-4{fill:#383f4d;}</style></defs><g id="Layer_2" data-name="Layer 2"><g id="b5b072d9-b5a4-4f96-a9a9-2e33ee6d5cf1"><g id="dog"><path class="cls-1" d="M2.4,42.2c.2,15.7,13.5,28,29.1,28h2.2a7.3,7.3,0,0,1,5.2,2.1,7.2,7.2,0,0,1,2,3.6,5.7,5.7,0,0,1,.3,1.8v27.6a28.4,28.4,0,0,0,4.3,15,39.9,39.9,0,0,1,6.6,21.4h0A13.3,13.3,0,0,0,65.4,155h.2c7.4-.1,13.1-6.4,13.1-13.8v-6.9l3.7.5v6.9A13.3,13.3,0,0,0,95.7,155h.2c7.4-.1,13.1-6.4,13.1-13.8v-3.5c3.6,1.6,24.2,1.6,29.9,0h1.6v4A13.3,13.3,0,0,0,153.8,155h.3c7.3-.1,13-6.4,13-13.8v-5.7h1.2v6.3A13.3,13.3,0,0,0,181.7,155h.2a13.5,13.5,0,0,0,13-11.9,11.5,11.5,0,0,0,.1-1.9V112.3a44.6,44.6,0,0,0-9.4-27.4,8.3,8.3,0,0,1-.3-9.7c6.8-9.9,16.8-26.7,16.5-38.5a12.3,12.3,0,0,0-3.2-8.8l-.4-.5c-9.7-10.2-26.9-2.1-25.4,11.9a39.4,39.4,0,0,1-1,14.1,51.7,51.7,0,0,1-2.7,7.5A12.9,12.9,0,0,1,156,68.2a33.1,33.1,0,0,0-5.5-.4h-56A15.8,15.8,0,0,1,79.6,57.2a18.1,18.1,0,0,1-.8-5.1V8.5A8.5,8.5,0,0,0,70.3,0H70a8.6,8.6,0,0,0-5.8,2.7,9.4,9.4,0,0,0-2.4,6.1,4.5,4.5,0,0,1-4.4,4.5H30.9A28.6,28.6,0,0,0,2.4,41.8v.4Z"/><path class="cls-2" d="M168.8,145a13.3,13.3,0,0,0,13.1,10,13.5,13.5,0,0,0,13-11.9C186.8,140.9,175.6,139.4,168.8,145Z"/><path class="cls-2" d="M140.9,145A13.3,13.3,0,0,0,154,155a13.5,13.5,0,0,0,13-11.9C158.9,140.9,147.8,139.4,140.9,145Z"/><path class="cls-2" d="M82.8,145a13.3,13.3,0,0,0,13.1,10,13.5,13.5,0,0,0,13-11.9C100.8,140.9,89.6,139.4,82.8,145Z"/><path class="cls-2" d="M52.5,145a13.3,13.3,0,0,0,13.1,10,13.5,13.5,0,0,0,13-11.9C70.5,140.9,59.4,139.4,52.5,145Z"/><path class="cls-2" d="M171.7,53.4c9.4-3.8,20.9-10.7,30-16.7a12.7,12.7,0,0,0-3.1-8.8l-.5-.5c-9.7-10.2-26.9-2.1-25.4,11.9A39.4,39.4,0,0,1,171.7,53.4Z"/><path class="cls-2" d="M160.3,67.9s-25.9,32.6-68.3-.1"/><path class="cls-2" d="M78.7,7.3s-15.7,20.6,0,46"/><path class="cls-2" d="M41.2,77.5s13.8,17.2.2,30.9"/><path class="cls-3" d="M40,73.9c1,1,.6,1.9,1,3.3L86,65.4c-2.5-1.9-5.5-4.1-6.5-7C74.2,62.6,63.5,69.6,40,73.9Z"/><path class="cls-4" d="M38.9,72.3A8.5,8.5,0,0,1,41,76L84.8,64.5a15.4,15.4,0,0,1-5.2-7.3C74.2,61.3,62.4,68,38.9,72.3Z"/><path class="cls-3" d="M77.9,59.6S64.2,69.9,41.2,73.1"/><path class="cls-1" d="M77.9,58.4S64.2,68.7,41.2,71.9"/><path class="cls-3" d="M43.6,59.3s-23,7.3-29.1-15.7Z"/><path class="cls-2" d="M43.6,58.1s-23,7.3-29.1-15.7Z"/><ellipse class="cls-4" cx="2.4" cy="39.4" rx="2.4" ry="4.2"/><path class="cls-3" d="M185.9,126.6,181,87.8s14.6,23,4.9,38.8"/><path class="cls-2" d="M179.8,87.8s14.6,23,4.9,38.8Z"/></g></g></g></svg>