<svg xmlns="http://www.w3.org/2000/svg" viewBox="0 0 235.5 235.4"><defs><style>.cls-1{fill:#535461;}</style></defs><g id="Layer_2" data-name="Layer 2"><g id="_74ad5bb7-fdcd-4b2d-be88-4cebbebfa027" data-name="74ad5bb7-fdcd-4b2d-be88-4cebbebfa027"><g id="front-wheel"><path class="cls-1" d="M67.8,199.4l49-78.9-2.9,1.6L30.9,175,19.2,83.8l97.9,34.1v-1.1l-6.2-4.4L68.6,27.7l45.3-8.1V18.1h2v1.2l30.6-5.4,8.2,9,.6-1.9,38.8,45.2L220,94.5l-3.4,22.1-90.5,1.6v-2l88.8-1.5,3-19.5-19-20.8-77.2,43.3,4.8,3.4.4.2v.2l73.7,53.4-46.2,32.8-29.1-84.8-6.3-2.2-.2.2-6.2,97.9Zm2.9-1,40,17.4,5.9-91.4ZM128,124.8l27.4,79.7,41.8-29.6ZM21.6,86.7l10.8,84.9,80.3-51.2,2.1-1.2ZM153.9,24.9l-8.2-9L116,21.2l3,94.6.4.3,2.5-4.1Zm38.7,42.6L155.4,26.6l-31.6,86.2-1.3,2.2,74.8-42ZM71.5,29.2,112.4,111l4.6,3.3-3-92.7Z"/><path class="cls-1" d="M117.7,0a114.6,114.6,0,1,0,31.4,4.2A117.8,117.8,0,0,0,117.7,0Zm.4,206.1a87.4,87.4,0,0,1-22.3-2.9,88.8,88.8,0,0,1,44.6-172A93.9,93.9,0,0,1,155,36.4a88.9,88.9,0,0,1-36.9,169.7Z"/></g></g></g></svg>