<svg xmlns="http://www.w3.org/2000/svg" viewBox="0 0 23.4 70.3"><defs><style>.cls-1{fill:#a0616a;}.cls-2{fill:#6c63ff;}.cls-3{fill:#3f3d56;}.cls-4{fill:#fff;}.cls-5{fill:#2f2e41;}</style></defs><g id="Layer_2" data-name="Layer 2"><g id="Layer_1-2" data-name="Layer 1"><g id="girl-phone"><path class="cls-1" d="M16.2,39.1a1.9,1.9,0,0,1-1.4-2.3h0a.4.4,0,0,1,.1-.3L8,21l3.9-1,5.6,15.6a1.9,1.9,0,0,1,.8,2.5A1.9,1.9,0,0,1,16.2,39.1Z"/><path class="cls-2" d="M9.3,25.9a1,1,0,0,1-.5-.6l-1.2-4a2.3,2.3,0,0,1,1.1-3.1,2.3,2.3,0,0,1,3.1,1.1l2.3,3.5a.8.8,0,0,1-.1,1.1h-.2L10,25.7A1,1,0,0,1,9.3,25.9Z"/><path class="cls-3" d="M23.3,23.9l-4.2,2.9h-.4L17.5,26a.3.3,0,0,1,0-.4h0l3.3-2.9h.3l2.1.8c.2.1.2.2.1.4S23.3,23.8,23.3,23.9Z"/><path class="cls-4" d="M22.9,23.6v-.2L21,22.8h-.2l-2.9,2.6h0l1.1.7h.1l3.8-2.7Z"/><polygon class="cls-1" points="7.9 68.2 10 68.2 11.1 60 7.9 60 7.9 68.2"/><path class="cls-5" d="M7.4,67.6h4.2a2.7,2.7,0,0,1,2.6,2.7H7.4Z"/><polygon class="cls-1" points="0.8 68.2 2.9 68.2 3.9 60 0.8 60 0.8 68.2"/><path class="cls-5" d="M.3,67.6H4.4a2.7,2.7,0,0,1,2.7,2.7H.3Z"/><path class="cls-5" d="M.4,65.8a.7.7,0,0,1-.3-.6C-.4,60,1,32.6,4.2,30.3h0l9.3-1.6h0l.2.2c0,.2,1.7,24.3-3,36.5a.8.8,0,0,1-.7.5H8.1a.7.7,0,0,1-.7-.7h0l1.5-23q0-.2-.3-.3a.2.2,0,0,0-.2.2h0L4.1,65.5a1.1,1.1,0,0,1-.7.6H.9C.7,66,.5,66,.4,65.8Z"/><circle class="cls-1" cx="12.6" cy="10.3" r="4.3"/><path class="cls-2" d="M2.4,34a.9.9,0,0,1-.3-.7l1.7-8.1c-1.4-5.9.5-7,2.6-8.2H6.3l.9-2.3a.8.8,0,0,1,.9-.6h.1l4.5,2.4a1,1,0,0,1,.4.5.9.9,0,0,1,0,.7l-.3.9c.8,1.1,2.1,5.6.7,7.3l1.1,5.8a1.2,1.2,0,0,1-.7,1L3,34.1H2.4Z"/><path class="cls-1" d="M18.3,24.6l-.2.3-8.6-.6-.9-1.9-3,1,1.3,3.5a1.4,1.4,0,0,0,1.4.9l9.8-.8a1.8,1.8,0,0,0,2.5.5h0a1.9,1.9,0,0,0,.4-2.6,1.8,1.8,0,0,0-2.5-.4Z"/><path class="cls-2" d="M9.2,24.3,5.5,25.5a.8.8,0,0,1-.9-.3V25H4.4l-.6-3.8a2.2,2.2,0,0,1,1.3-2.8,2.3,2.3,0,0,1,2.8,1.4l1.7,3.5a.8.8,0,0,1-.3,1.1H9.2Z"/><circle class="cls-5" cx="10.2" cy="3.5" r="3.5"/><path class="cls-5" d="M16.7,10.8h1a1.5,1.5,0,0,0,.6-.9c.6-4.3-3-4-3.5-4.2a1.8,1.8,0,0,1-.7-.5,3.5,3.5,0,0,0-2-.5A10.7,10.7,0,0,0,9.6,5,5.7,5.7,0,0,0,8,6.5a18,18,0,0,0-.8,2.1,5.3,5.3,0,0,0-.1,2.5,3.2,3.2,0,0,0,2.8,2.3,2.4,2.4,0,0,1,1.3-2.6,4.5,4.5,0,0,1,2.3-.3,4.4,4.4,0,0,0,1.6.2Z"/></g></g></g></svg>