<svg xmlns="http://www.w3.org/2000/svg" viewBox="0 0 235.3 235.3"><defs><style>.cls-1{fill:#535461;}</style></defs><g id="Layer_2" data-name="Layer 2"><g id="_74ad5bb7-fdcd-4b2d-be88-4cebbebfa027" data-name="74ad5bb7-fdcd-4b2d-be88-4cebbebfa027"><g id="rear-wheel"><path class="cls-1" d="M67.8,199.3l49-78.9-2.9,1.7-83,52.8L19.2,83.7,117,117.8v-1l-6.1-4.5L68.6,27.7l45.3-8.1V18h2v1.2l30.5-5.5,8.2,9,.7-1.8L194,66.1l25.9,28.4-3.4,22.2L126,118.3v-2l88.9-1.6,3-19.5-19-20.8-77.2,43.3,4.8,3.4.4.2v.2l73.7,53.4-46.2,32.8-29.1-84.9-6.3-2.2-.2.2-6.2,98Zm2.9-.9,40,17.4,5.9-91.4ZM128,124.8l27.4,79.7,41.7-29.6ZM21.6,86.7l10.8,84.9,80.3-51.2,2.1-1.2ZM153.9,24.9l-8.2-9L116,21.2l3,94.5.4.4,2.5-4.1Zm38.7,42.5L155.4,26.6l-31.6,86.2-1.3,2.2,74.8-42ZM71.5,29.2,112.4,111l4.5,3.3-3-92.7Z"/><path class="cls-1" d="M0,117.7A125.3,125.3,0,0,0,1.4,136,117.7,117.7,0,1,0,206.7,40.8C164.2-8.4,89.9-13.9,40.8,28.6A108.9,108.9,0,0,0,26.6,43.2,116.5,116.5,0,0,0,2.9,91.7,119.1,119.1,0,0,0,0,117.7Zm30.7,15.6a84.8,84.8,0,0,1-1.5-15.9,89.1,89.1,0,1,1,1.5,15.9Z"/></g></g></g></svg>