<svg xmlns="http://www.w3.org/2000/svg" viewBox="0 0 31.4 66.2"><defs><style>.cls-1{fill:#ffb8b8;}.cls-2{fill:#6c63ff;}.cls-3{fill:#fff;}.cls-4{fill:#3f3d56;}.cls-5{fill:#2f2e41;}</style></defs><g id="Layer_2" data-name="Layer 2"><g id="b7ff5eec-b031-4b55-ad80-a01491e5732a"><g id="women-running"><path class="cls-1" d="M3.9,16.8a1.6,1.6,0,0,1,1.3,2,.4.4,0,0,0-.1.3l4.3,4.2L6.3,24,2.7,19.9a1.7,1.7,0,0,1,1.2-3.1Z"/><path class="cls-2" d="M10.1,27.8l-5.4-5a.8.8,0,0,1,0-1.1h0l1.1-1.1a.8.8,0,0,1,1-.1l4.5,3.4,2.8-6.8A2.1,2.1,0,0,1,16.8,16H17a2.1,2.1,0,0,1,1.1,2.3c-.5,3.1-3.6,7.2-5.4,9.3a1.8,1.8,0,0,1-2,.6C10.5,28.1,10.2,28,10.1,27.8Z"/><path class="cls-3" d="M7.1,22.9l-4-5.7c-.1-.2-.1-.4.1-.5h.1c.2-.1.4-.1.5.1l4,5.7a.4.4,0,0,1-.1.5H7.5a.2.2,0,0,1-.4-.1Z"/><path class="cls-4" d="M5.9,23,2.7,18.2a.9.9,0,0,1,.2-1.3l.3-.2L7.6,23l-.4.2h0A.9.9,0,0,1,5.9,23Z"/><polygon class="cls-1" points="6.3 64 4.3 63.8 4.6 55.7 7.3 56.1 6.3 64"/><path class="cls-5" d="M6.6,66,0,65.3H0a2.7,2.7,0,0,1,2.9-2.3h0l4,.5Z"/><polygon class="cls-1" points="30.3 62.5 28.3 63.1 25 55.7 27.9 54.8 30.3 62.5"/><path class="cls-5" d="M31.4,64.2l-6.4,2h0a2.5,2.5,0,0,1,1.7-3.2h0l3.9-1.2Z"/><path class="cls-5" d="M4,62.1a.8.8,0,0,1-.5-1L4.7,46.8A5.5,5.5,0,0,1,5.3,45l7.5-12.5,6.8,1.2h0c3.3,2,6.2,11.8,9,21.1.4,1.5.9,3,1.3,4.4a.8.8,0,0,1-.5,1.1l-2,.9a.8.8,0,0,1-1.1-.4L15.9,41.7h-.3L9.5,48.5,7.3,61.6h0a.9.9,0,0,1-1,.5H4Z"/><path class="cls-2" d="M12.5,33.9h-.1c0-.1-3.1-10.5-.3-17.1h0c.1-.2,2-3.9,4.2-4.2h.1l.7,1.4c.3.2,4.2,4.3,2.4,11.4.2.6,2.4,8.5,1.2,9.7a2.8,2.8,0,0,1-1.5.4A29.5,29.5,0,0,1,12.5,33.9Z"/><circle class="cls-5" cx="15.9" cy="5.9" r="5.2"/><circle class="cls-1" cx="13.8" cy="7" r="4.2"/><path class="cls-5" d="M16.5,11c-.4.1-.9.3-1.2,0a.9.9,0,0,1,0-1.1,11.7,11.7,0,0,1,.5-1.1,1.9,1.9,0,0,0-.6-1.6,5.1,5.1,0,0,0-1.5-.7L10.8,5.4A2.8,2.8,0,0,1,8.9,4.2a2.1,2.1,0,0,1,.9-2.9A3.6,3.6,0,0,1,13,1.2l1.7.7c1.1.3,2.4,0,3.5.7a3.2,3.2,0,0,1,1.2,2.8,8.4,8.4,0,0,1-.8,3.1,5.9,5.9,0,0,1-1,1.7,1.7,1.7,0,0,1-1.6.7Z"/><circle class="cls-5" cx="20.3" cy="3.4" r="3.4"/><path class="cls-3" d="M14.7,8.3c0-.2.1-.4.3-.4a.4.4,0,0,1,.4.4l-.2.3v.7l-.2.2V9.3h0V8.6Z"/><path class="cls-1" d="M4.2,20.3A1.7,1.7,0,0,1,6,21.8v.3l5.6,2.5L8.9,26.3,4.1,23.7a1.7,1.7,0,0,1-1.5-1.9A1.8,1.8,0,0,1,4.2,20.3Z"/><path class="cls-2" d="M13.7,28.5,6.9,25.7a1,1,0,0,1-.4-1h0l.7-1.5a.8.8,0,0,1,.9-.4l5.4,1.7.3-7.4a2.1,2.1,0,0,1,2.2-2h.1A2.2,2.2,0,0,1,18,16.8c.6,3.1-.9,8-1.8,10.6a1.9,1.9,0,0,1-1.8,1.3Z"/></g></g></g></svg>