<svg xmlns="http://www.w3.org/2000/svg" viewBox="0 0 45.1 87"><defs><style>.cls-1{fill:#e6e6e6;}.cls-2{fill:#ccc;}.cls-3{fill:#fff;}.cls-4{fill:#a0616a;}.cls-5{fill:#3f3d56;}.cls-6{fill:#2f2e41;}.cls-7{fill:#6c63ff;}</style></defs><g id="Layer_2" data-name="Layer 2"><g id="b7ff5eec-b031-4b55-ad80-a01491e5732a"><g id="worker_right" data-name="worker right"><path class="cls-1" d="M4.6,24H1.4a.4.4,0,0,1-.4-.4L.4,17.2H5.6L5,23.6A.4.4,0,0,1,4.6,24Z"/><path class="cls-2" d="M5.6,18H.4a.4.4,0,0,1-.4-.4v-1a.4.4,0,0,1,.4-.4H5.6a.4.4,0,0,1,.4.4v1A.4.4,0,0,1,5.6,18Z"/><path class="cls-2" d="M35.5,61.9a34.3,34.3,0,0,1-5.3-10,.8.8,0,0,1,.4-1.1l7.8-4.2a1,1,0,0,1,.9-.1c.2.2.5.4.5.7a24,24,0,0,0,5,9.3,1.1,1.1,0,0,1,.3.8,1.3,1.3,0,0,1-.5.7l-7.9,4.2A1,1,0,0,1,35.5,61.9Z"/><path class="cls-3" d="M36.1,61.5a.2.2,0,0,0,.3.1l7.9-4.2v-.2c0-.1,0-.2-.1-.2a24.1,24.1,0,0,1-5.1-9.6.2.2,0,0,0-.2-.2c-.1-.1-.2-.1-.2,0l-7.9,4.2c-.1,0-.1.2-.1.3a34.6,34.6,0,0,0,5.3,9.8Z"/><path class="cls-2" d="M39,52.6l-4.3,1.8a.7.7,0,0,1-.9-.3v-.2c-.1-.4,0-.8.4-.9l4.2-1.9a.8.8,0,0,1,.9.3v.3A.7.7,0,0,1,39,52.6Z"/><path class="cls-2" d="M40.5,55.5l-4.2,1.8a.6.6,0,0,1-.9-.3v-.2a.6.6,0,0,1,.3-.9L39.9,54a.8.8,0,0,1,.9.3v.3A.7.7,0,0,1,40.5,55.5Z"/><path class="cls-4" d="M30.5,53a2.4,2.4,0,0,1-.7-3.3l.3-.3L28.3,23.9l5.1.5.2,25A2.4,2.4,0,0,1,30.5,53Z"/><path class="cls-5" d="M29.4,32.5a1.2,1.2,0,0,1-.4-.8l-.4-6.9a2.8,2.8,0,0,1,2.6-2.9,2.9,2.9,0,0,1,2.9,2l1.6,6.2a.9.9,0,0,1-.7,1.2l-4.7,1.3A1.4,1.4,0,0,1,29.4,32.5Z"/><polygon class="cls-4" points="20.6 84.4 17.9 84.4 16.6 73.9 20.6 73.9 20.6 84.4"/><path class="cls-6" d="M15.3,83.6h5.9V87H12.6v-.6a2.8,2.8,0,0,1,2.7-2.8Z"/><polygon class="cls-4" points="30.9 84.4 28.1 84.4 26.8 73.9 30.9 73.9 30.9 84.4"/><path class="cls-6" d="M25.6,83.6h5.8V87H22.9v-.6a2.8,2.8,0,0,1,2.7-2.8Z"/><path class="cls-6" d="M20.5,79.1h-3a1,1,0,0,1-1-1c-.8-12.3-1.9-25.4-.2-30.4a1,1,0,0,1,1-1.1.1.1,0,0,1,.1.1l12.1,1.7a1,1,0,0,1,.8,1c1.6,6,1.6,16.9,1.6,28.2a1.1,1.1,0,0,1-1,1H27.6a1.1,1.1,0,0,1-1-.9l-2-12.7a.6.6,0,0,0-.8-.6.7.7,0,0,0-.7.7L21.5,78.2a1,1,0,0,1-1,.9Z"/><path class="cls-5" d="M22.6,49.3a16.9,16.9,0,0,0-5.7-2,.9.9,0,0,1-.7-.3.8.8,0,0,1-.2-.8l2.9-21.4A7.2,7.2,0,0,1,23.2,19a7.3,7.3,0,0,1,7,.6l.3.2a7.4,7.4,0,0,1,2.8,7.7c-1.8,7.2-2.4,19.1-2.5,21.4a.9.9,0,0,1-.6.8,13.7,13.7,0,0,1-3.4.7A8.8,8.8,0,0,1,22.6,49.3Z"/><circle class="cls-4" cx="25" cy="10.6" r="5.5"/><path class="cls-6" d="M28.9,15a1.8,1.8,0,0,1-2.5.1,2.4,2.4,0,0,1-.6-1.1v-.4a12.9,12.9,0,0,0,.4-1.9.8.8,0,0,0-.2-.5c-.8-1.1-2.7.5-3.5-.5s.1-1.6-.3-2.2-1.9-.5-2.7-1-1-2-.3-2.9a4.4,4.4,0,0,1,3.5-1.8,8.9,8.9,0,0,1,4,.7,7.9,7.9,0,0,1,3.8,2.7,6.4,6.4,0,0,1,.7,5.4A11.3,11.3,0,0,1,28.9,15Z"/><path class="cls-7" d="M33.2,20.3c-.1-.5-.9-1.1-2.1-1.6a13.1,13.1,0,0,0-11.7,1c-.2,0-.4.2-.5.5l-4,17.5-.5,2.2-.3,1.5-.5,2.3-.3,1.2a.6.6,0,0,0,.4.7h.1l17.1,1.5h0a.6.6,0,0,0,.6-.5l.2-2.5V40.3l.2-2.6,1.1-17.4Z"/><path class="cls-4" d="M5.2,21.4v.4l9.6,5.5,2.3-1.4,2.5,3.3-5,3.5L3.7,24.1a2.3,2.3,0,0,1-3-1.4,2.4,2.4,0,0,1,1.4-3,2.4,2.4,0,0,1,3,1.4A.4.4,0,0,0,5.2,21.4Z"/><path class="cls-5" d="M15.1,26.8a1.1,1.1,0,0,1,.3-.8l4.9-4.9a2.7,2.7,0,0,1,3.9,0,2.9,2.9,0,0,1,.4,3.5l-3.5,5.3a1,1,0,0,1-1.4.3l-4.1-2.7C15.3,27.4,15.2,27.1,15.1,26.8Z"/><polygon class="cls-2" points="32.1 37.7 31.9 40.3 14.4 39.9 14.9 37.7 32.1 37.7"/><polygon class="cls-2" points="31.8 41.4 31.6 44.1 13.6 43.7 14.1 41.4 31.8 41.4"/><path class="cls-7" d="M25.1,0h0A7.2,7.2,0,0,0,18,6.9H16.6a.5.5,0,0,0-.4.5V9.1a.5.5,0,0,0,.4.5H31.8a.5.5,0,0,0,.4-.5h0v-2A7.1,7.1,0,0,0,25.1,0Z"/></g></g></g></svg>