<svg xmlns="http://www.w3.org/2000/svg" viewBox="0 0 26.8 76.9"><defs><style>.cls-1{fill:#6c63ff;}.cls-2{fill:#ffb8b8;}.cls-3{fill:#2f2e41;}.cls-4{fill:#3f3d56;}.cls-5{fill:#ccc;}.cls-6{fill:#e6e6e6;}</style></defs><g id="Layer_2" data-name="Layer 2"><g id="b7ff5eec-b031-4b55-ad80-a01491e5732a"><g id="worker-left"><path class="cls-1" d="M19.8,18.7H9.4V15.6c3.3-2.3,6.2-2.1,10.1.2Z"/><polygon class="cls-2" points="7 74.7 4.8 74.7 4.4 66 7 66 7 74.7"/><path class="cls-3" d="M7.6,76.9H.3A2.9,2.9,0,0,1,3.1,74H7.6Z"/><polygon class="cls-2" points="19.9 74.7 22.1 74.7 22.5 66 19.8 66 19.9 74.7"/><path class="cls-3" d="M19.3,74h4.4a2.9,2.9,0,0,1,2.9,2.8H19.3Z"/><path class="cls-3" d="M19.9,73.6a.9.9,0,0,1-.8-.6L13.5,48.4c-.1-.2-.2-.2-.3-.2h0c-.1,0-.3,0-.3.2L7.7,72.8a.8.8,0,0,1-.8.7H4.5a.9.9,0,0,1-.9-.9h0l1.9-31,.7-.2H20.7l3.1,30.9a.9.9,0,0,1-.7,1h0l-3.1.2Z"/><circle class="cls-2" cx="13.9" cy="8.5" r="4.6"/><path class="cls-4" d="M11.1,45a8.5,8.5,0,0,1-2.3-.3A5.1,5.1,0,0,1,5.6,42a1.3,1.3,0,0,1-.1-.6c.5-1.7,3-10.6,1.4-17.7A7.9,7.9,0,0,1,8,17.9a7.3,7.3,0,0,1,4.8-3.2h.8a7.1,7.1,0,0,1,5.9,1.9,7.4,7.4,0,0,1,2.4,6L20.7,41.6a.7.7,0,0,1-.4.7C18.9,43,14.8,45,11.1,45Z"/><path class="cls-3" d="M19.1,5.2a5.7,5.7,0,0,0-6.2-3.5l1.5,1.2c-1.8,0-3.7-.1-5,1.2.4,0,1,.8,1.4.8A2.2,2.2,0,0,0,9,6.1a3.6,3.6,0,0,0-.2,2.3,18.2,18.2,0,0,0,1.6,3.1c-.1-1.8,3.5-6.1,5.2-5.6a5.7,5.7,0,0,0-2.2,1.6,6.6,6.6,0,0,1,3.9-.6h.9a1.2,1.2,0,0,0,.9-1.3c-.1-.2-.1-.4-.2-.5Z"/><path class="cls-1" d="M10.8,43.9h-.3L1.8,40a.9.9,0,0,1-.4-1L7.1,17.4a3.1,3.1,0,0,1,3.8-2.2H11l2.3.7L11.6,43.1a.5.5,0,0,1-.4.6A.5.5,0,0,1,10.8,43.9Z"/><path class="cls-1" d="M26.8,39l-.4-1.4-.5-2.1-.3-1-.5-2-4-15.1a3.2,3.2,0,0,0-3.8-2.2h-.1l-2.3.7L16,35l.2,2v1.3h0l.2,2v2.8a1,1,0,0,0,.9.8h.3L26.3,40A.8.8,0,0,0,26.8,39Z"/><polygon class="cls-5" points="25.6 34.5 16.2 37 16 35 25.1 32.5 25.6 34.5"/><polygon class="cls-5" points="26.4 37.6 16.4 40.3 16.2 38.3 16.2 38.3 25.9 35.5 26.4 37.6"/><polygon class="cls-5" points="12 35.4 11.9 37.4 2.6 34.6 3.2 32.6 12 35.4"/><polygon class="cls-5" points="11.8 38.7 2.4 35.6 1.8 37.7 11.7 40.6 11.8 38.7"/><path class="cls-2" d="M2.5,40.7a1.9,1.9,0,0,0,1.4-2.4.4.4,0,0,0-.1-.3L8.3,24l-3.2-.6L1,37.1a2.1,2.1,0,0,0-.8,2.7A2,2,0,0,0,2.5,40.7Z"/><path class="cls-4" d="M8.4,17.2h0c.9.1,1.4,1.1,1.2,2.4l-1.1,6a.9.9,0,0,1-.8.8l-3.6-.9c-.3-.1-.4-.5-.2-.9l2.2-5.5A2.6,2.6,0,0,1,8.4,17.2Z"/><path class="cls-1" d="M13.9,0h0a5.9,5.9,0,0,1,5.9,5.7h1.1a.4.4,0,0,1,.4.4V7.6a.4.4,0,0,1-.4.4H8.3C8.1,8,8,7.8,8,7.6V5.9A5.9,5.9,0,0,1,13.9,0Z"/><path class="cls-6" d="M14.6,36.7H12c-.2,0-.3-.1-.4-.3L11.1,31h4.4l-.6,5.4A.3.3,0,0,1,14.6,36.7Z"/><path class="cls-5" d="M15.5,31.7H11.1c-.2,0-.3-.2-.3-.4v-.8a.3.3,0,0,1,.3-.3h4.4a.3.3,0,0,1,.3.3v.8A.4.4,0,0,1,15.5,31.7Z"/><path class="cls-2" d="M13.4,33.8h.3l6.9-6-.4-2.2,3.3-1.1,1.1,3.8a1.6,1.6,0,0,1-.7,1.7l-8.8,5.6a2,2,0,1,1-3.9.1,1.9,1.9,0,0,1,1.9-2Z"/><path class="cls-4" d="M20.7,17.7h0c.9-.3,1.9.4,2.2,1.7l1.6,6a.8.8,0,0,1-.5,1l-4.1.6c-.4,0-.6-.3-.6-.7l-.2-5.9A2.5,2.5,0,0,1,20.7,17.7Z"/></g></g></g></svg>